<svg xmlns="http://www.w3.org/2000/svg" width="16" height="16">
  <path d="M 1 2 L 1 7 L 2 7 L 2 2 L 1 2 z M 4.5 2 C 3.669 2 3 2.669 3 3.5 L 3 5.5 C 3 6.331 3.669 7 4.5 7 C 5.331 7 6 6.331 6 5.5 L 6 3.5 C 6 2.669 5.331 2 4.5 2 z M 11.5 2 C 10.669 2 10 2.669 10 3.5 L 10 5.5 C 10 6.331 10.669 7 11.5 7 C 12.331 7 13 6.331 13 5.5 L 13 3.5 C 13 2.669 12.331 2 11.5 2 z M 4.5 3 C 4.777 3 5 3.223 5 3.5 L 5 5.5 C 5 5.777 4.777 6 4.5 6 C 4.223 6 4 5.777 4 5.5 L 4 3.5 C 4 3.223 4.223 3 4.5 3 z M 11.5 3 C 11.777 3 12 3.223 12 3.5 L 12 5.5 C 12 5.777 11.777 6 11.5 6 C 11.223 6 11 5.777 11 5.5 L 11 3.5 C 11 3.223 11.223 3 11.5 3 z M 8 5 C 7.446 5 7 5.446 7 6 C 7 6.554 7.446 7 8 7 C 8.554 7 9 6.554 9 6 C 9 5.446 8.554 5 8 5 z M 15 5 C 14.446 5 14 5.446 14 6 C 14 6.554 14.446 7 15 7 C 15.554 7 16 6.554 16 6 C 16 5.446 15.554 5 15 5 z M 2.5 9 C 1.669 9 1 9.669 1 10.5 L 1 12.5 C 1 13.331 1.669 14 2.5 14 C 3.331 14 4 13.331 4 12.5 L 4 10.5 C 4 9.669 3.331 9 2.5 9 z M 8 9 L 8 14 L 9 14 L 9 9 L 8 9 z M 2.5 10 C 2.777 10 3 10.223 3 10.5 L 3 12.5 C 3 12.777 2.777 13 2.5 13 C 2.223 13 2 12.777 2 12.5 L 2 10.5 C 2 10.223 2.223 10 2.5 10 z M 11 11 L 11 16 L 16 16 L 16 11 L 11 11 z M 6 12 C 5.446 12 5 12.446 5 13 C 5 13.554 5.446 14 6 14 C 6.554 14 7 13.554 7 13 C 7 12.446 6.554 12 6 12 z M 12 12 L 13 12 L 13 13 L 14 13 L 14 12 L 15 12 L 15 14 L 14 14 L 14 15 L 13 15 L 13 14 L 12 14 L 12 12 z " fill="#c0bfbc" />
</svg>
